# xmcd CD database file
#
# Track frame offsets:
#	150
#	14267
#	32872
#	53897
#	72732
#	91652
#	113435
#	136407
#	156955
#	172892
#	193530
#	216717
#	237272
#
# Disc length: 3421 seconds
#
# Revision: 0
# Processed by: cddbd v1.5PL3 Copyright (c) Steve Scherf et al.
# Submitted via: CDex 1.51
#
DISCID=b30d5b0d
DTITLE=Various Artist - FEMALE in JAZZ  relax
DYEAR=2002
DGENRE=Vocal
TTITLE0=Don't Know Why/Norah Jones
TTITLE1=Time After Time/Cassandra Wilson
TTITLE2=Calling You/Holly Cole
TTITLE3=First Conversation/Cecilie Norby
TTITLE4=Solitary/Viktoria Tolstoy
TTITLE5=Alfie/Patricia Barber
TTITLE6=Le Poisson Des Mers Du Sud/Eme
TTITLE7=If Ever lose This Heaven/Nancy Wilson
TTITLE8=Vagabond/Bet.E and Stef
TTITLE9=You Must Believe In Spring/Marena Shaw
TTITLE10=I Don't Know/Soulive feat Amel Larrie
TTITLE11=Hey Jude/Bob Belden Project feat Jhelisa
TTITLE12=Peace On Earth/Rachelle Ferrell
EXTD=YEAR: 2002
EXTT0=
EXTT1=
EXTT2=
EXTT3=
EXTT4=
EXTT5=
EXTT6=
EXTT7=
EXTT8=
EXTT9=
EXTT10=
EXTT11=
EXTT12=
PLAYORDER=
